<?xml version="1.0" encoding="UTF-8"?>
<svg xmlns="http://www.w3.org/2000/svg" xmlns:xlink="http://www.w3.org/1999/xlink" width="54px" height="48px" viewBox="0 0 54 48" version="1.1">
<g id="surface1">
<path style=" stroke:none;fill-rule:nonzero;fill:rgb(6.666667%,52.156866%,99.607843%);fill-opacity:1;" d="M 12.214844 3.988281 C 18.199219 8.507812 24.636719 17.675781 27 22.59375 C 29.363281 17.675781 35.800781 8.507812 41.785156 3.988281 C 46.101562 0.726562 53.101562 -1.796875 53.101562 6.234375 C 53.101562 7.835938 52.1875 19.707031 51.648438 21.636719 C 49.785156 28.335938 42.996094 30.046875 36.957031 29.011719 C 47.515625 30.820312 50.199219 36.808594 44.398438 42.796875 C 33.386719 54.171875 28.566406 39.941406 27.332031 36.296875 C 27.105469 35.628906 27 35.316406 27 35.582031 C 27 35.316406 26.890625 35.628906 26.667969 36.296875 C 25.433594 39.941406 20.613281 54.171875 9.597656 42.796875 C 3.800781 36.808594 6.484375 30.820312 17.042969 29.011719 C 11.003906 30.046875 4.210938 28.335938 2.351562 21.636719 C 1.8125 19.707031 0.898438 7.835938 0.898438 6.234375 C 0.898438 -1.796875 7.894531 0.726562 12.214844 3.988281 Z M 12.214844 3.988281 "/>
</g>
</svg>
